<!DOCTYPE svg PUBLIC "-//W3C//DTD SVG 1.1//EN" "http://www.w3.org/Graphics/SVG/1.1/DTD/svg11.dtd">
<!-- Uploaded to: SVG Repo, www.svgrepo.com, Transformed by: SVG Repo Mixer Tools -->
<svg width="800px" height="800px" viewBox="-1.6 -1.6 19.20 19.20" xmlns="http://www.w3.org/2000/svg" fill="none">
<g id="SVGRepo_bgCarrier" stroke-width="0">
<path transform="translate(-1.6, -1.6), scale(1.2)" fill="#FFA500" d="M9.166.33a2.25 2.25 0 00-2.332 0l-5.25 3.182A2.25 2.25 0 00.5 5.436v5.128a2.25 2.25 0 001.084 1.924l5.25 3.182a2.25 2.25 0 002.332 0l5.25-3.182a2.25 2.25 0 001.084-1.924V5.436a2.25 2.25 0 00-1.084-1.924L9.166.33z" strokewidth="0"/>
</g>
<g id="SVGRepo_tracerCarrier" stroke-linecap="round" stroke-linejoin="round"/>
<g id="SVGRepo_iconCarrier">
<path fill="red" d="M14.712 4.633a1.754 1.754 0 00-1.234-1.234C12.382 3.11 8 3.11 8 3.11s-4.382 0-5.478.289c-.6.161-1.072.634-1.234 1.234C1 5.728 1 8 1 8s0 2.283.288 3.367c.162.6.635 1.073 1.234 1.234C3.618 12.89 8 12.89 8 12.89s4.382 0 5.478-.289a1.754 1.754 0 001.234-1.234C15 10.272 15 8 15 8s0-2.272-.288-3.367z"/>
<path fill="#ffffff" d="M6.593 10.11l3.644-2.098-3.644-2.11v4.208z"/>
</g>
</svg>